<svg width="100%" height="100%" viewBox="0 0 461 372" fill="none" xmlns="http://www.w3.org/2000/svg">
                <g filter="url(#filter0_d_880_951)">
                    <path
                        d="M385.182 55.9705L349.62 56.3635C347.948 47.0287 342.332 22.5357 347.39 15.855C347.62 13.3405 348.697 11.0238 350.395 9.38711C352.094 7.75041 354.283 6.91985 356.508 7.0683C362.02 -2.71905 371.201 -1.24954 377.406 4.86308C383.651 7.30744 386.006 11.65 385.182 17.543C389.807 22.1352 390.66 27.7223 388.584 34.0821L385.182 55.9705Z"
                        fill="#2F2E41" />
                    <path
                        d="M381.759 80.8213L356.102 76.7915L350.97 68.284C358.039 62.9651 360.54 55.5362 357.286 45.448L375.049 45.0002C374.216 53.9839 376.835 60.9397 384.127 65.1496L381.759 80.8213Z"
                        fill="#FFB9B9" />
                    <path
                        d="M350.035 343.338L349.054 358.552C349.01 359.24 349.096 359.932 349.306 360.58C349.517 361.228 349.847 361.817 350.275 362.308C350.702 362.8 351.218 363.182 351.786 363.428C352.355 363.675 352.963 363.781 353.571 363.74L360.46 363.266C360.779 363.244 361.09 363.143 361.371 362.969C361.652 362.795 361.895 362.553 362.084 362.261C362.273 361.968 362.403 361.632 362.465 361.276C362.526 360.92 362.518 360.553 362.44 360.201L358.617 342.851L350.035 343.338Z"
                        fill="#E6E6E6" />
                    <path
                        d="M372.338 342.851L368.514 360.201C368.437 360.553 368.428 360.92 368.49 361.276C368.552 361.632 368.682 361.968 368.871 362.261C369.06 362.554 369.303 362.795 369.584 362.969C369.865 363.143 370.176 363.244 370.495 363.266L377.384 363.739C377.992 363.781 378.6 363.675 379.168 363.428C379.737 363.182 380.252 362.8 380.68 362.308C381.108 361.817 381.438 361.228 381.648 360.58C381.859 359.932 381.945 359.24 381.9 358.552L380.919 343.338L372.338 342.851Z"
                        fill="#E6E6E6" />
                    <path
                        d="M381.364 345.45L372.067 344.391L362.812 232.166L359.314 344.03L350.18 343.659L334.786 188.732H393.601L381.364 345.45Z"
                        fill="#1E7B7B" />
                    <path
                        d="M367.154 52.6122C376.964 52.6122 384.917 43.591 384.917 32.4629C384.917 21.3347 376.964 12.3135 367.154 12.3135C357.344 12.3135 349.391 21.3347 349.391 32.4629C349.391 43.591 357.344 52.6122 367.154 52.6122Z"
                        fill="#FFB9B9" />
                    <path
                        d="M402.285 192.315L330.444 193.21C341.106 147.17 347.483 104.402 336.365 75.0005L354.128 65.1497C362.693 75.2833 372.231 74.2386 382.548 64.2542L399.522 69.1795C396.615 107.735 397.918 149.029 402.285 192.315Z"
                        fill="#1E7B7B" />
                    <path
                        d="M310.708 144.852L355.312 165.001L365.285 168.328C365.731 168.477 366.199 168.522 366.66 168.46C367.122 168.399 367.568 168.232 367.972 167.97C368.375 167.708 368.728 167.356 369.008 166.936C369.289 166.515 369.492 166.035 369.605 165.523C369.802 164.626 369.714 163.678 369.354 162.848C368.995 162.018 368.388 161.359 367.641 160.989L357.286 157.389L326.102 136.792L332.615 117.314L318.997 109.031L310.708 144.852Z"
                        fill="#FFB9B9" />
                    <path
                        d="M311.103 108.135C319.589 111.891 326.339 118.3 331.628 126.941L348.207 99.6275L336.365 75.0005L311.103 108.135Z"
                        fill="#1E7B7B" />
                    <path
                        d="M387.174 29.1974C379.964 27.0903 372.876 26.801 365.986 29.4737C361.597 31.8851 356.326 31.6629 350.464 29.676V9.573L382.11 10.5303L387.174 29.1974Z"
                        fill="#2F2E41" />
                    <path
                        d="M355.164 121.375C353.769 121.377 352.432 122.006 351.446 123.125C350.459 124.244 349.905 125.761 349.903 127.343L351.98 176.652C351.981 178.235 352.536 179.752 353.522 180.87C354.509 181.989 355.846 182.618 357.241 182.62H380.982C382.377 182.618 383.714 181.989 384.701 180.87C385.687 179.752 386.242 178.235 386.243 176.652L388.32 127.343C388.318 125.761 387.763 124.244 386.777 123.125C385.791 122.006 384.454 121.377 383.059 121.375H355.164Z"
                        fill="#3F3D56" />
                    <path
                        d="M422.526 141.126L383.648 158.687L380.714 160.012C380.621 160.054 380.528 160.089 380.429 160.124L370.602 163.404C369.345 163.823 367.606 161.903 366.589 160.578C366.085 159.939 365.799 159.117 365.784 158.26C365.769 157.403 366.025 156.569 366.505 155.908C366.641 155.73 366.791 155.567 366.952 155.419C367.331 155.085 367.777 154.862 368.25 154.771L378.067 152.581C378.419 152.502 378.757 152.359 379.069 152.157L383.648 149.13L407.419 133.43C408.08 132.994 408.584 132.306 408.839 131.488C409.095 130.671 409.087 129.777 408.816 128.966L404.278 115.392C404 114.561 403.998 113.644 404.272 112.812C404.546 111.98 405.078 111.289 405.768 110.869L413.286 106.299C413.715 106.038 414.191 105.89 414.678 105.868C415.166 105.845 415.651 105.948 416.098 106.169C416.545 106.391 416.941 106.724 417.258 107.144C417.575 107.564 417.804 108.061 417.927 108.596L424.452 136.792C424.653 137.657 424.568 138.575 424.213 139.373C423.858 140.172 423.258 140.795 422.526 141.126Z"
                        fill="#FFB9B9" />
                    <path
                        d="M424.784 103.209C416.298 106.965 409.548 113.375 404.259 122.016L387.68 94.702L399.522 69.1794L424.784 103.209Z"
                        fill="#1E7B7B" />
                    <path
                        d="M378.975 50.3969C371.205 54.0634 363.057 53.9145 354.576 50.3969C357.043 45.6186 353.355 41.8762 351.461 37.0526L383.128 35.9851C380.707 40.1755 377.133 45.1263 378.975 50.3969Z"
                        fill="white" />
                    <path
                        d="M382.793 36.7824L382.426 36.3661L382.945 35.7772L386.046 31.6714L386.441 32.0542L383.326 36.1764L382.793 36.7824Z"
                        fill="white" />
                    <path d="M349.291 34.2866L348.958 34.7393L352.073 37.6837L352.406 37.2311L349.291 34.2866Z"
                        fill="white" />
                    <path d="M383.688 40.2446L378.235 49.9604L378.673 50.2767L384.126 40.5609L383.688 40.2446Z"
                        fill="white" />
                    <path d="M349.863 40.2438L349.425 40.5601L354.876 50.2768L355.314 49.9606L349.863 40.2438Z"
                        fill="white" />
                    <path
                        d="M384.686 148.297V158.965L381.412 160.444C381.307 160.49 381.203 160.53 381.093 160.569L370.123 164.231C368.721 164.697 366.78 162.554 365.644 161.075C365.081 160.363 364.763 159.445 364.746 158.489C364.729 157.532 365.014 156.601 365.551 155.863C365.703 155.664 365.869 155.482 366.049 155.317C366.472 154.944 366.97 154.695 367.498 154.594L378.456 152.149C378.849 152.061 379.227 151.901 379.575 151.675L384.686 148.297Z"
                        fill="white" />
                    <path
                        d="M389.431 110.242H387.555C387.555 80.1436 382.091 59.1681 376.767 59.1681L376.298 57.04C381.073 57.04 384.117 65.7698 385.83 73.0935C388.152 83.0219 389.431 96.2149 389.431 110.242Z"
                        fill="#3F3D56" />
                    <path
                        d="M346.282 102.794H344.406C344.406 75.2285 349.907 58.1042 358.007 58.1042L357.538 60.2323C351.935 60.2323 346.282 73.3929 346.282 102.794Z"
                        fill="#3F3D56" />
                    <path
                        d="M388.493 116.095C391.083 116.095 393.183 113.713 393.183 110.774C393.183 107.836 391.083 105.454 388.493 105.454C385.902 105.454 383.802 107.836 383.802 110.774C383.802 113.713 385.902 116.095 388.493 116.095Z"
                        fill="#3F3D56" />
                    <path
                        d="M338.778 115.563H336.902C336.902 107.935 340.689 101.73 345.344 101.73V103.858C341.723 103.858 338.778 109.109 338.778 115.563Z"
                        fill="#3F3D56" />
                    <path
                        d="M353.786 115.563H351.91C351.91 109.109 348.965 103.858 345.344 103.858V101.73C349.999 101.73 353.786 107.935 353.786 115.563Z"
                        fill="#3F3D56" />
                    <path
                        d="M352.848 118.223C353.884 118.223 354.724 117.27 354.724 116.095C354.724 114.919 353.884 113.967 352.848 113.967C351.812 113.967 350.972 114.919 350.972 116.095C350.972 117.27 351.812 118.223 352.848 118.223Z"
                        fill="#3F3D56" />
                    <path
                        d="M337.84 118.223C338.876 118.223 339.716 117.27 339.716 116.095C339.716 114.919 338.876 113.967 337.84 113.967C336.804 113.967 335.964 114.919 335.964 116.095C335.964 117.27 336.804 118.223 337.84 118.223Z"
                        fill="#3F3D56" />
                    <path
                        d="M111.757 44.5779L78.8085 50.9071C77.9946 51.0646 77.1581 50.874 76.4609 50.3722C75.7637 49.8704 75.2554 49.0931 75.0343 48.1907C72.6538 38.4448 67.677 25.7309 72.509 19.3486C72.7552 16.6635 73.9048 14.1897 75.7184 12.4419C77.5321 10.6942 79.8701 9.80727 82.2458 9.96579C88.1317 -0.485545 97.9355 1.08366 104.562 7.61098C111.23 10.2212 113.744 14.8583 112.865 21.1511C115.746 24.0117 117.257 27.2337 117.575 30.7701C117.726 32.7381 117.505 34.7199 116.928 36.5835C116.35 38.447 115.428 40.1493 114.225 41.5768L111.757 44.5779Z"
                        fill="#2F2E41" />
                    <path
                        d="M106.634 74.002L81.0918 72.2976C83.595 65.7804 84.5949 59.5046 83.5959 53.5498H102.627C102.584 58.1219 104.59 66.0308 106.634 74.002Z"
                        fill="#9F616A" />
                    <path
                        d="M75.8884 341.73L74.8408 357.976C74.7933 358.711 74.8851 359.45 75.1098 360.142C75.3346 360.834 75.6872 361.463 76.1439 361.988C76.6006 362.512 77.151 362.92 77.7581 363.183C78.3651 363.447 79.0148 363.56 79.6637 363.516L87.02 363.01C87.3609 362.987 87.693 362.878 87.9928 362.693C88.2925 362.507 88.5526 362.249 88.7545 361.937C88.9564 361.624 89.0952 361.265 89.161 360.885C89.2267 360.505 89.2179 360.113 89.1351 359.738L85.0517 341.21L75.8884 341.73Z"
                        fill="#E6E6E6" />
                    <path
                        d="M99.7041 341.21L95.6207 359.738C95.5379 360.113 95.529 360.505 95.5948 360.885C95.6606 361.265 95.7994 361.624 96.0013 361.937C96.2032 362.249 96.4632 362.507 96.763 362.693C97.0628 362.878 97.3949 362.987 97.7357 363.01L105.092 363.516C105.741 363.56 106.391 363.447 106.998 363.183C107.605 362.92 108.155 362.512 108.612 361.988C109.069 361.463 109.421 360.834 109.646 360.142C109.871 359.45 109.962 358.711 109.915 357.976L108.867 341.73L99.7041 341.21Z"
                        fill="#E6E6E6" />
                    <path
                        d="M109.342 343.985L99.4151 342.855L89.5316 223.015L85.7964 342.469L76.0432 342.072L59.6045 176.636H122.409L109.342 343.985Z"
                        fill="#1E7B7B" />
                    <path
                        d="M93.6136 60.4465C104.089 60.4465 112.581 50.8133 112.581 38.9301C112.581 27.047 104.089 17.4138 93.6136 17.4138C83.1379 17.4138 74.6458 27.047 74.6458 38.9301C74.6458 50.8133 83.1379 60.4465 93.6136 60.4465Z"
                        fill="#9F616A" />
                    <path
                        d="M114.991 28.6516C107.293 27.1307 99.724 26.9219 92.3663 28.8509C87.6794 30.5914 82.0508 30.4311 75.7913 28.997V14.4873L109.585 15.1782L114.991 28.6516Z"
                        fill="#2F2E41" />
                    <path
                        d="M106.237 56.1944C97.9391 60.1097 89.2383 59.9507 80.1819 56.1944C82.8171 51.0919 78.878 47.0957 76.8557 41.9449L110.672 40.8049C108.086 45.2796 104.27 50.5662 106.237 56.1944Z"
                        fill="white" />
                    <path d="M74.5274 39.0063L74.1948 39.459L77.5208 42.603L77.8534 42.1504L74.5274 39.0063Z"
                        fill="white" />
                    <path d="M111.285 45.3634L105.462 55.7385L105.9 56.0548L111.723 45.6797L111.285 45.3634Z"
                        fill="white" />
                    <path d="M75.1336 45.363L74.6956 45.6792L80.5164 56.0553L80.9544 55.7391L75.1336 45.363Z"
                        fill="white" />
                    <path
                        d="M57.553 137.063L43.0291 126.837L55.4154 85.6856C56.7969 81.4393 59.443 77.874 62.8961 75.6062L67.0687 72.866L67.4315 114.38L57.553 137.063Z"
                        fill="#1E7B7B" />
                    <path
                        d="M120.332 157.049L118.183 136.172C118.068 125.152 119.721 114.497 123.662 104.681L125.665 74.0022L103.629 63.7761C103.561 64.2855 103.504 64.7946 103.44 65.3039L93.1117 71.1616L83.0394 68.5649L83.0951 64.9124L63.0621 75.1385C69.687 110.076 66.0737 146.358 54.6812 189.213L81.0728 197.399L81.2923 183.024L104.813 181.118C105.055 185.782 105.25 190.363 105.363 194.842C118.635 200.385 119.091 200.293 131.183 192.357C126.368 180.872 122.555 168.92 120.332 157.049Z"
                        fill="#1E7B7B" />
                    <path d="M154.212 131.95L140.69 126.837L119.061 98.2738L125.665 74.0024L155.715 121.724L154.212 131.95Z"
                        fill="#1E7B7B" />
                    <path
                        d="M111.834 154.063C112.055 155.164 112.652 156.121 113.494 156.724C114.337 157.327 115.355 157.526 116.327 157.278L127.806 154.329L126.147 146.018L114.668 148.966C113.696 149.216 112.852 149.893 112.32 150.849C111.789 151.805 111.614 152.961 111.834 154.063Z"
                        fill="#E6E6E6" />
                    <path
                        d="M122.159 144.449L128.67 158.083C139.621 154.619 149.112 143.696 158.219 130.814L155.715 121.724L140.189 126.269L122.159 144.449Z"
                        fill="#1E7B7B" />
                    <path d="M37.2693 101.679L49.7682 104.211L78.3372 150.29L63.16 146.239L37.2693 101.679Z"
                        fill="#E6E6E6" />
                    <path
                        d="M35.0525 101.115C34.862 101.118 34.6758 101.18 34.5133 101.293C34.3509 101.405 34.2181 101.566 34.129 101.757C34.0398 101.948 33.9976 102.162 34.0066 102.378C34.0156 102.594 34.0755 102.803 34.1802 102.984L60.8846 148.945C61.0336 149.202 61.2638 149.384 61.5278 149.454L73.9526 152.77C74.162 152.826 74.3816 152.809 74.582 152.72C74.7825 152.631 74.9544 152.475 75.0749 152.273C75.1954 152.07 75.2589 151.831 75.2569 151.587C75.255 151.343 75.1876 151.106 75.0638 150.906L45.7439 103.615C45.6644 103.487 45.5633 103.377 45.4463 103.292C45.3294 103.208 45.1989 103.15 45.0624 103.123L35.2527 101.136C35.1866 101.122 35.1196 101.115 35.0525 101.115Z"
                        fill="#3F3D56" />
                    <path
                        d="M51.7109 133.977L52.4531 142.457L64.1648 141.138C65.1562 141.027 66.0678 140.473 66.6992 139.599C67.3306 138.725 67.6301 137.602 67.5317 136.477C67.4333 135.353 66.9452 134.319 66.1746 133.602C65.404 132.886 64.4142 132.546 63.4229 132.658L51.7109 133.977Z"
                        fill="#E6E6E6" />
                    <path
                        d="M41.5269 132.995C41.5439 135.886 42.5676 138.653 44.3751 140.692C46.1826 142.731 48.6272 143.877 51.1763 143.88H53.1021L54.5041 130.627L42.8958 125.886L41.5269 132.995Z"
                        fill="#1E7B7B" />
                    <path
                        d="M109.746 42.2709L109.379 41.8545L109.934 41.2256L113.247 36.8401L113.641 37.2229L110.314 41.6249L109.746 42.2709Z"
                        fill="white" />
                    <path
                        d="M175.99 362.233H285.01V212.232C285.01 204.289 278.113 197.827 269.636 197.827H191.364C182.886 197.827 175.99 204.289 175.99 212.232V362.233Z"
                        fill="#E6E6E6" />
                    <path
                        d="M184.296 356.03H276.704V228.886C276.704 222.154 270.858 216.677 263.672 216.677H197.328C190.142 216.677 184.296 222.154 184.296 228.886V356.03Z"
                        fill="white" />
                    <path
                        d="M175.166 186.154C172.472 186.154 170.279 188.208 170.279 190.732V203.949C170.279 206.474 172.472 208.528 175.166 208.528H285.834C288.529 208.528 290.721 206.474 290.721 203.949V190.732C290.721 188.208 288.529 186.154 285.834 186.154H175.166Z"
                        fill="#3F3D56" />
                    <path
                        d="M197.888 339.727C196.623 339.731 195.41 340.303 194.516 341.318C193.621 342.333 193.117 343.708 193.113 345.143C193.117 346.578 193.621 347.953 194.516 348.968C195.41 349.983 196.623 350.555 197.888 350.559H206.824V339.727H197.888Z"
                        fill="#3F3D56" />
                    <path
                        d="M215.027 339.727H206.335V350.559H215.027C216.292 350.555 217.504 349.983 218.398 348.968C219.293 347.953 219.797 346.578 219.801 345.143C219.797 343.708 219.293 342.333 218.398 341.318C217.504 340.303 216.292 339.731 215.027 339.727Z"
                        fill="#1E7B7B" />
                    <path opacity="0.2"
                        d="M218.142 341.054C218.895 342.033 219.31 343.288 219.311 344.588C219.308 346.023 218.803 347.398 217.909 348.413C217.014 349.427 215.802 349.999 214.537 350.004H206.335V350.559H215.027C216.292 350.555 217.504 349.983 218.398 348.968C219.293 347.953 219.797 346.578 219.801 345.143C219.8 344.366 219.651 343.599 219.365 342.893C219.078 342.187 218.661 341.56 218.142 341.054Z"
                        fill="black" />
                    <path
                        d="M238.215 258.15C237.345 257.108 236.146 256.5 234.882 256.458C233.617 256.415 232.389 256.942 231.466 257.924C230.548 258.911 230.012 260.271 229.974 261.705C229.937 263.139 230.402 264.532 231.267 265.58L237.397 272.956L244.345 265.526L238.215 258.15Z"
                        fill="#3F3D56" />
                    <path
                        d="M249.971 272.297L244.009 265.122L237.061 272.552L243.023 279.727C243.894 280.768 245.092 281.376 246.356 281.419C247.621 281.461 248.849 280.934 249.772 279.953C250.69 278.965 251.226 277.606 251.264 276.171C251.301 274.737 250.836 273.344 249.971 272.297Z"
                        fill="#1E7B7B" />
                    <path opacity="0.2"
                        d="M251.258 275.778C251.146 277.071 250.625 278.275 249.793 279.167C248.869 280.149 247.642 280.676 246.377 280.633C245.112 280.591 243.914 279.983 243.044 278.941L237.417 272.171L237.061 272.552L243.023 279.727C243.894 280.768 245.092 281.376 246.356 281.419C247.621 281.461 248.849 280.934 249.772 279.953C250.27 279.419 250.66 278.77 250.916 278.049C251.173 277.329 251.289 276.554 251.258 275.778Z"
                        fill="black" />
                    <path
                        d="M212.777 275.228C211.907 274.186 210.708 273.578 209.444 273.536C208.179 273.493 206.951 274.021 206.028 275.002C205.11 275.989 204.574 277.349 204.537 278.783C204.499 280.218 204.964 281.611 205.829 282.658L211.959 290.034L218.907 282.605L212.777 275.228Z"
                        fill="#3F3D56" />
                    <path
                        d="M224.533 289.375L218.571 282.2L211.623 289.63L217.585 296.805C218.455 297.846 219.654 298.454 220.918 298.497C222.183 298.539 223.411 298.012 224.334 297.031C225.252 296.043 225.788 294.684 225.826 293.249C225.863 291.815 225.398 290.422 224.533 289.375Z"
                        fill="#1E7B7B" />
                    <path opacity="0.2"
                        d="M225.819 292.856C225.708 294.149 225.187 295.353 224.354 296.245C223.431 297.227 222.203 297.754 220.939 297.711C219.674 297.669 218.476 297.061 217.605 296.019L211.979 289.249L211.623 289.63L217.585 296.805C218.455 297.846 219.654 298.454 220.918 298.497C222.183 298.539 223.411 298.012 224.334 297.031C224.831 296.497 225.222 295.848 225.478 295.127C225.734 294.407 225.851 293.632 225.819 292.856Z"
                        fill="black" />
                    <path
                        d="M238.215 291.128C237.345 290.087 236.146 289.478 234.882 289.436C233.617 289.394 232.389 289.921 231.466 290.902C230.548 291.889 230.012 293.249 229.974 294.683C229.937 296.118 230.402 297.511 231.267 298.558L237.397 305.934L244.345 298.505L238.215 291.128Z"
                        fill="#3F3D56" />
                    <path
                        d="M249.971 305.275L244.009 298.101L237.061 305.53L243.023 312.705C243.894 313.746 245.092 314.355 246.356 314.397C247.621 314.439 248.849 313.912 249.772 312.931C250.69 311.944 251.226 310.584 251.264 309.15C251.301 307.715 250.836 306.322 249.971 305.275Z"
                        fill="#1E7B7B" />
                    <path opacity="0.2"
                        d="M251.258 308.757C251.146 310.05 250.625 311.254 249.793 312.146C248.869 313.127 247.642 313.654 246.377 313.612C245.112 313.569 243.914 312.961 243.044 311.92L237.417 305.149L237.061 305.53L243.023 312.705C243.894 313.746 245.092 314.355 246.356 314.397C247.621 314.439 248.849 313.912 249.772 312.931C250.27 312.397 250.66 311.748 250.916 311.028C251.173 310.307 251.289 309.533 251.258 308.757Z"
                        fill="black" />
                    <path
                        d="M253.734 324.97C254.641 323.97 255.163 322.603 255.185 321.169C255.207 319.734 254.727 318.347 253.851 317.312C252.97 316.283 251.765 315.691 250.5 315.666C249.235 315.641 248.013 316.185 247.1 317.179L240.672 324.222L247.306 332.013L253.734 324.97Z"
                        fill="#3F3D56" />
                    <path
                        d="M241.406 338.477L247.658 331.627L241.024 323.836L234.773 330.686C233.865 331.686 233.343 333.052 233.322 334.487C233.3 335.922 233.779 337.309 234.655 338.344C235.537 339.373 236.742 339.965 238.007 339.99C239.272 340.015 240.494 339.471 241.406 338.477Z"
                        fill="#1E7B7B" />
                    <path opacity="0.2"
                        d="M238.353 339.978C237.212 339.867 236.144 339.291 235.348 338.357C234.471 337.322 233.992 335.936 234.014 334.501C234.036 333.066 234.558 331.699 235.465 330.699L241.365 324.235L241.024 323.836L234.773 330.686C233.865 331.686 233.343 333.052 233.322 334.487C233.3 335.922 233.779 337.309 234.655 338.344C235.132 338.902 235.709 339.336 236.347 339.618C236.985 339.9 237.669 340.023 238.353 339.978Z"
                        fill="black" />
                    <path
                        d="M219.47 307.892C220.378 306.892 220.899 305.526 220.921 304.091C220.943 302.656 220.464 301.269 219.587 300.234C218.706 299.205 217.501 298.613 216.236 298.588C214.971 298.563 213.749 299.107 212.836 300.101L206.408 307.144L213.042 314.935L219.47 307.892Z"
                        fill="#3F3D56" />
                    <path
                        d="M207.143 321.399L213.394 314.549L206.761 306.758L200.509 313.608C199.601 314.608 199.08 315.974 199.058 317.409C199.036 318.844 199.515 320.23 200.392 321.266C201.273 322.295 202.478 322.887 203.743 322.912C205.008 322.936 206.23 322.393 207.143 321.399Z"
                        fill="#1E7B7B" />
                    <path opacity="0.2"
                        d="M204.089 322.9C202.948 322.789 201.881 322.213 201.084 321.279C200.208 320.244 199.728 318.858 199.75 317.423C199.772 315.988 200.294 314.621 201.201 313.621L207.101 307.157L206.761 306.758L200.509 313.608C199.601 314.608 199.08 315.974 199.058 317.409C199.036 318.844 199.515 320.23 200.392 321.266C200.868 321.823 201.445 322.258 202.083 322.54C202.722 322.822 203.406 322.945 204.089 322.9Z"
                        fill="black" />
                    <path
                        d="M268.27 287.281C269.177 286.281 269.699 284.914 269.721 283.479C269.743 282.044 269.263 280.658 268.387 279.623C267.505 278.593 266.301 278.002 265.036 277.977C263.771 277.952 262.549 278.496 261.636 279.49L255.208 286.532L261.842 294.323L268.27 287.281Z"
                        fill="#3F3D56" />
                    <path
                        d="M255.942 300.787L262.194 293.937L255.56 286.146L249.308 292.996C248.401 293.996 247.879 295.363 247.857 296.798C247.835 298.233 248.315 299.619 249.191 300.654C250.073 301.684 251.278 302.275 252.543 302.3C253.807 302.325 255.03 301.781 255.942 300.787Z"
                        fill="#1E7B7B" />
                    <path opacity="0.2"
                        d="M252.889 302.288C251.748 302.177 250.68 301.602 249.884 300.668C249.007 299.633 248.528 298.246 248.55 296.811C248.572 295.377 249.093 294.01 250.001 293.01L255.9 286.546L255.56 286.146L249.308 292.996C248.401 293.996 247.879 295.363 247.857 296.798C247.835 298.233 248.315 299.619 249.191 300.654C249.668 301.212 250.245 301.647 250.883 301.929C251.521 302.211 252.205 302.334 252.889 302.288Z"
                        fill="black" />
                    <path
                        d="M257.423 329.995C256.553 328.954 255.355 328.346 254.09 328.303C252.825 328.261 251.597 328.788 250.674 329.769C249.756 330.757 249.22 332.116 249.183 333.55C249.145 334.985 249.61 336.378 250.475 337.425L256.605 344.802L263.553 337.372L257.423 329.995Z"
                        fill="#3F3D56" />
                    <path
                        d="M269.18 344.142L263.218 336.968L256.269 344.397L262.231 351.572C263.102 352.613 264.3 353.222 265.565 353.264C266.829 353.306 268.057 352.779 268.98 351.798C269.898 350.811 270.435 349.451 270.472 348.017C270.509 346.582 270.045 345.189 269.18 344.142Z"
                        fill="#1E7B7B" />
                    <path opacity="0.2"
                        d="M270.466 347.623C270.354 348.917 269.834 350.12 269.001 351.013C268.078 351.994 266.85 352.521 265.585 352.479C264.321 352.436 263.122 351.828 262.252 350.787L256.626 344.016L256.269 344.397L262.231 351.572C263.102 352.613 264.3 353.222 265.565 353.264C266.829 353.306 268.057 352.779 268.98 351.798C269.478 351.264 269.868 350.615 270.125 349.894C270.381 349.174 270.497 348.399 270.466 347.623Z"
                        fill="black" />
                    <path
                        d="M223.679 329.406C222.809 328.365 221.61 327.757 220.346 327.714C219.081 327.672 217.853 328.199 216.93 329.18C216.012 330.168 215.476 331.527 215.438 332.962C215.401 334.396 215.866 335.789 216.731 336.836L222.861 344.213L229.809 336.783L223.679 329.406Z"
                        fill="#3F3D56" />
                    <path
                        d="M235.435 343.553L229.473 336.379L222.525 343.809L228.487 350.983C229.357 352.024 230.556 352.633 231.82 352.675C233.085 352.717 234.313 352.19 235.236 351.209C236.154 350.222 236.69 348.862 236.728 347.428C236.765 345.993 236.3 344.6 235.435 343.553Z"
                        fill="#1E7B7B" />
                    <path opacity="0.2"
                        d="M236.721 347.035C236.61 348.328 236.089 349.532 235.256 350.424C234.333 351.405 233.105 351.932 231.841 351.89C230.576 351.847 229.378 351.239 228.507 350.198L222.881 343.427L222.525 343.808L228.487 350.983C229.357 352.024 230.556 352.633 231.82 352.675C233.085 352.717 234.313 352.19 235.236 351.209C235.734 350.675 236.124 350.026 236.38 349.306C236.636 348.585 236.753 347.811 236.721 347.035Z"
                        fill="black" />
                    <path
                        d="M233.178 309.977C233.178 311.777 232.63 313.523 231.626 314.917C230.622 316.312 229.225 317.271 227.669 317.631C226.76 317.839 225.824 317.839 224.915 317.631C223.36 317.271 221.962 316.312 220.959 314.917C219.955 313.522 219.407 311.777 219.407 309.977C219.407 308.176 219.955 306.431 220.959 305.036C221.962 303.641 223.36 302.683 224.915 302.322C225.824 302.114 226.76 302.114 227.669 302.322C229.225 302.682 230.622 303.641 231.626 305.036C232.63 306.431 233.178 308.176 233.178 309.977Z"
                        fill="#1E7B7B" />
                    <path opacity="0.2"
                        d="M227.669 302.322V317.631C226.76 317.839 225.824 317.839 224.915 317.631V302.322C225.824 302.114 226.76 302.114 227.669 302.322Z"
                        fill="black" />
                    <path
                        d="M236.292 278.765C236.293 280.566 235.745 282.311 234.741 283.706C233.737 285.101 232.339 286.059 230.784 286.42C229.875 286.628 228.939 286.628 228.03 286.42C226.475 286.059 225.077 285.1 224.073 283.706C223.07 282.311 222.521 280.566 222.521 278.765C222.521 276.965 223.07 275.219 224.073 273.825C225.077 272.43 226.475 271.471 228.03 271.111C228.939 270.903 229.875 270.903 230.784 271.111C232.339 271.471 233.737 272.43 234.741 273.824C235.745 275.219 236.293 276.965 236.292 278.765Z"
                        fill="#1E7B7B" />
                    <path opacity="0.2"
                        d="M230.784 271.111V286.42C229.875 286.628 228.939 286.628 228.03 286.42V271.111C228.939 270.903 229.875 270.903 230.784 271.111Z"
                        fill="black" />
                    <path
                        d="M236.292 323.521C236.293 325.322 235.745 327.067 234.741 328.462C233.737 329.857 232.339 330.815 230.784 331.175C229.875 331.384 228.939 331.384 228.03 331.175C226.475 330.815 225.077 329.856 224.073 328.462C223.07 327.067 222.521 325.322 222.521 323.521C222.521 321.721 223.07 319.975 224.073 318.581C225.077 317.186 226.475 316.227 228.03 315.867C228.939 315.658 229.875 315.658 230.784 315.867C232.339 316.227 233.737 317.185 234.741 318.58C235.745 319.975 236.293 321.72 236.292 323.521Z"
                        fill="#1E7B7B" />
                    <path opacity="0.2"
                        d="M230.784 315.867V331.175C229.875 331.384 228.939 331.384 228.03 331.175V315.867C228.939 315.658 229.875 315.658 230.784 315.867Z"
                        fill="black" />
                    <path
                        d="M253.424 345.31C253.425 347.111 252.877 348.856 251.873 350.251C250.869 351.646 249.471 352.605 247.916 352.965C247.007 353.173 246.071 353.173 245.162 352.965C243.607 352.604 242.209 351.646 241.205 350.251C240.202 348.856 239.653 347.111 239.653 345.31C239.653 343.51 240.202 341.765 241.205 340.37C242.209 338.975 243.607 338.016 245.162 337.656C246.071 337.448 247.007 337.448 247.916 337.656C249.471 338.016 250.869 338.975 251.873 340.37C252.877 341.764 253.425 343.51 253.424 345.31Z"
                        fill="#1E7B7B" />
                    <path opacity="0.2"
                        d="M247.916 337.656V352.965C247.007 353.173 246.071 353.173 245.162 352.965V337.656C246.071 337.448 247.007 337.448 247.916 337.656Z"
                        fill="black" />
                    <path
                        d="M268.558 305.221C269.701 306.47 270.429 308.129 270.618 309.917C270.806 311.705 270.445 313.512 269.594 315.032C269.095 315.919 268.446 316.683 267.683 317.281C266.375 318.301 264.796 318.777 263.214 318.629C261.632 318.481 260.144 317.718 259.001 316.468C257.859 315.219 257.131 313.56 256.943 311.772C256.754 309.984 257.115 308.177 257.966 306.657C258.464 305.77 259.114 305.006 259.877 304.408C261.185 303.387 262.763 302.911 264.345 303.059C265.927 303.207 267.416 303.971 268.558 305.221Z"
                        fill="#1E7B7B" />
                    <path opacity="0.2"
                        d="M259.877 304.408L269.594 315.032C269.095 315.919 268.446 316.683 267.683 317.281L257.966 306.657C258.464 305.77 259.114 305.006 259.877 304.408Z"
                        fill="black" />
                    <path
                        d="M270.635 322.299C271.778 323.548 272.505 325.207 272.694 326.995C272.883 328.783 272.521 330.589 271.671 332.11C271.172 332.996 270.522 333.761 269.759 334.359C268.451 335.379 266.873 335.855 265.291 335.707C263.709 335.559 262.221 334.796 261.078 333.546C259.935 332.297 259.208 330.638 259.019 328.85C258.831 327.062 259.192 325.255 260.042 323.735C260.541 322.848 261.191 322.083 261.954 321.486C263.262 320.465 264.84 319.989 266.422 320.137C268.004 320.285 269.492 321.049 270.635 322.299Z"
                        fill="#1E7B7B" />
                    <path opacity="0.2"
                        d="M261.954 321.486L271.671 332.11C271.172 332.997 270.522 333.761 269.759 334.359L260.042 323.735C260.541 322.848 261.191 322.084 261.954 321.486Z"
                        fill="black" />
                    <path
                        d="M208.857 326.421C210 327.67 210.727 329.329 210.916 331.117C211.105 332.905 210.743 334.712 209.892 336.232C209.394 337.119 208.744 337.884 207.981 338.481C206.673 339.501 205.095 339.977 203.513 339.829C201.931 339.681 200.443 338.918 199.3 337.668C198.157 336.419 197.43 334.76 197.241 332.972C197.052 331.184 197.414 329.378 198.264 327.857C198.763 326.971 199.413 326.206 200.175 325.608C201.483 324.588 203.062 324.111 204.644 324.259C206.226 324.408 207.714 325.171 208.857 326.421Z"
                        fill="#1E7B7B" />
                    <path opacity="0.2"
                        d="M200.176 325.608L209.892 336.232C209.394 337.119 208.744 337.884 207.981 338.481L198.264 327.857C198.763 326.971 199.413 326.206 200.176 325.608Z"
                        fill="black" />
                    <path opacity="0.2" d="M186.632 186.154H184.037V207.943H186.632V186.154Z" fill="black" />
                    <path opacity="0.2" d="M201.688 186.154H199.092V207.943H201.688V186.154Z" fill="black" />
                    <path opacity="0.2" d="M216.743 186.154H214.147V207.943H216.743V186.154Z" fill="black" />
                    <path opacity="0.2" d="M231.798 186.154H229.202V207.943H231.798V186.154Z" fill="black" />
                    <path opacity="0.2" d="M246.853 186.154H244.257V207.943H246.853V186.154Z" fill="black" />
                    <path opacity="0.2" d="M261.908 186.154H259.312V207.943H261.908V186.154Z" fill="black" />
                    <path opacity="0.2" d="M276.963 186.154H274.368V207.943H276.963V186.154Z" fill="black" />
                </g>
                <defs>
                    <filter id="filter0_d_880_951" x="-4" y="0" width="469" height="372"
                        filterUnits="userSpaceOnUse" color-interpolation-filters="sRGB">
                        <feFlood flood-opacity="0" result="BackgroundImageFix" />
                        <feColorMatrix in="SourceAlpha" type="matrix" values="0 0 0 0 0 0 0 0 0 0 0 0 0 0 0 0 0 0 127 0"
                            result="hardAlpha" />
                        <feOffset dy="4" />
                        <feGaussianBlur stdDeviation="2" />
                        <feComposite in2="hardAlpha" operator="out" />
                        <feColorMatrix type="matrix" values="0 0 0 0 0 0 0 0 0 0 0 0 0 0 0 0 0 0 0.1 0" />
                        <feBlend mode="normal" in2="BackgroundImageFix" result="effect1_dropShadow_880_951" />
                        <feBlend mode="normal" in="SourceGraphic" in2="effect1_dropShadow_880_951" result="shape" />
                    </filter>
                </defs>
            </svg>